<svg width="64" height="64" viewBox="0 0 64 64" fill="none" xmlns="http://www.w3.org/2000/svg">
  <!-- Background circle -->
  <circle cx="32" cy="32" r="30" fill="url(#bgGradient)" stroke="url(#borderGradient)" stroke-width="2"/>
  
  <!-- Dehumidifier device -->
  <rect x="20" y="16" width="24" height="32" rx="4" fill="white" opacity="0.95"/>
  <rect x="22" y="18" width="20" height="28" rx="3" fill="url(#deviceGradient)"/>
  
  <!-- Air intake grille -->
  <rect x="24" y="20" width="16" height="10" rx="1" fill="white" opacity="0.4"/>
  <line x1="26" y1="23" x2="38" y2="23" stroke="white" stroke-width="1" opacity="0.7"/>
  <line x1="26" y1="26" x2="38" y2="26" stroke="white" stroke-width="1" opacity="0.7"/>
  <line x1="26" y1="29" x2="38" y2="29" stroke="white" stroke-width="1" opacity="0.7"/>
  
  <!-- Air flow curves -->
  <path d="M12 24 Q24 18 36 24" stroke="white" stroke-width="2" stroke-linecap="round" opacity="0.9"/>
  <path d="M12 30 Q24 24 36 30" stroke="white" stroke-width="2" stroke-linecap="round" opacity="0.9"/>
  <path d="M12 36 Q24 30 36 36" stroke="white" stroke-width="2" stroke-linecap="round" opacity="0.9"/>
  
  <!-- Water drop -->
  <path d="M26 38 Q26 46 32 46 Q38 46 38 38 Q38 36 32 36 Q26 36 26 38 Z" fill="url(#waterGradient)"/>
  
  <!-- Power indicator -->
  <circle cx="36" cy="22" r="3" fill="#10b981"/>
  <circle cx="36" cy="22" r="1.5" fill="white"/>
  
  <!-- Gradients -->
  <defs>
    <linearGradient id="bgGradient" x1="0%" y1="0%" x2="100%" y2="100%">
      <stop offset="0%" style="stop-color:#0ea5e9;stop-opacity:1" />
      <stop offset="100%" style="stop-color:#10b981;stop-opacity:1" />
    </linearGradient>
    
    <linearGradient id="borderGradient" x1="0%" y1="0%" x2="100%" y2="100%">
      <stop offset="0%" style="stop-color:#0284c7;stop-opacity:1" />
      <stop offset="100%" style="stop-color:#059669;stop-opacity:1" />
    </linearGradient>
    
    <linearGradient id="deviceGradient" x1="0%" y1="0%" x2="100%" y2="100%">
      <stop offset="0%" style="stop-color:#f0f9ff;stop-opacity:1" />
      <stop offset="100%" style="stop-color:#ecfdf5;stop-opacity:1" />
    </linearGradient>
    
    <linearGradient id="waterGradient" x1="0%" y1="0%" x2="100%" y2="100%">
      <stop offset="0%" style="stop-color:#0ea5e9;stop-opacity:0.8" />
      <stop offset="100%" style="stop-color:#10b981;stop-opacity:0.8" />
    </linearGradient>
  </defs>
</svg> 